<svg width="77" height="94" viewBox="0 0 77 94" fill="none" xmlns="http://www.w3.org/2000/svg">
<path d="M71.8359 23.9658C71.7506 22.9557 70.8997 22.1818 69.8858 22.1917H55.0655V16.5754C55.0655 7.42084 47.6439 0 38.4901 0C29.3356 0 21.9147 7.42084 21.9147 16.5754V22.1917H7.09437C6.08507 22.1955 5.24259 22.9618 5.14432 23.9658L0.035357 82.7018C-0.196973 85.425 0.723205 88.1215 2.57346 90.1348C4.42296 92.1473 7.03191 93.2922 9.76578 93.2899H67.2335C69.9674 93.2922 72.5763 92.1473 74.4258 90.1348C76.2761 88.1215 77.197 85.425 76.9647 82.7018L71.8359 23.9658ZM25.8148 16.5754C25.8148 9.57503 31.4897 3.90009 38.4901 3.90009C45.4905 3.90009 51.1654 9.57503 51.1654 16.5754V22.1917H25.8148V16.5754ZM71.5434 87.4984C70.4404 88.7126 68.8735 89.4005 67.2335 89.3898H9.74598C8.10596 89.3906 6.54135 88.7027 5.43226 87.4946C4.32393 86.2857 3.7732 84.6671 3.91564 83.0331L8.86845 26.0918H21.9147V38.2598C18.7786 39.2249 16.8202 42.3381 17.3085 45.5831C17.796 48.8273 20.584 51.2268 23.8648 51.2268C27.1456 51.2268 29.9328 48.8273 30.421 45.5831C30.9085 42.3381 28.9501 39.2249 25.8148 38.2598V26.072H51.1654V38.2598C48.0293 39.2249 46.0709 42.3381 46.5592 45.5831C47.0467 48.8273 49.8347 51.2268 53.1155 51.2268C56.3963 51.2268 59.1834 48.8273 59.6717 45.5831C60.1592 42.3381 58.2008 39.2249 55.0655 38.2598V26.072H68.092L73.0448 83.0133C73.2047 84.6541 72.6586 86.285 71.5434 87.4984ZM23.5723 41.8871C23.7665 41.913 23.963 41.913 24.1573 41.8871C25.5992 42.0425 26.6687 43.2994 26.591 44.7475C26.5126 46.1963 25.3151 47.3313 23.8648 47.3313C22.4137 47.3313 21.2162 46.1963 21.1385 44.7475C21.0608 43.2994 22.1295 42.0425 23.5723 41.8871ZM52.8229 41.8871C53.0172 41.913 53.2137 41.913 53.408 41.8871C54.8499 42.0425 55.9194 43.2994 55.8417 44.7475C55.7632 46.1963 54.5658 47.3313 53.1155 47.3313C51.6643 47.3313 50.4669 46.1963 50.3892 44.7475C50.3115 43.2994 51.3802 42.0425 52.8229 41.8871Z" fill="black"/>
<path d="M39.864 51.98V55.328H33.204V77H29.1V55.328H22.404V51.98H39.864Z" fill="#29A867"/>
<path d="M44.944 84.252C43.264 84.252 41.752 83.964 40.408 83.388C39.064 82.788 38.008 81.948 37.24 80.868C36.472 79.788 36.088 78.528 36.088 77.088H40.48C40.576 78.168 40.996 79.056 41.74 79.752C42.508 80.448 43.576 80.796 44.944 80.796C46.36 80.796 47.464 80.46 48.256 79.788C49.048 79.092 49.444 78.204 49.444 77.124C49.444 76.284 49.192 75.6 48.688 75.072C48.208 74.544 47.596 74.136 46.852 73.848C46.132 73.56 45.124 73.248 43.828 72.912C42.196 72.48 40.864 72.048 39.832 71.616C38.824 71.16 37.96 70.464 37.24 69.528C36.52 68.592 36.16 67.344 36.16 65.784C36.16 64.344 36.52 63.084 37.24 62.004C37.96 60.924 38.968 60.096 40.264 59.52C41.56 58.944 43.06 58.656 44.764 58.656C47.188 58.656 49.168 59.268 50.704 60.492C52.264 61.692 53.128 63.348 53.296 65.46H48.76C48.688 64.548 48.256 63.768 47.464 63.12C46.672 62.472 45.628 62.148 44.332 62.148C43.156 62.148 42.196 62.448 41.452 63.048C40.708 63.648 40.336 64.512 40.336 65.64C40.336 66.408 40.564 67.044 41.02 67.548C41.5 68.028 42.1 68.412 42.82 68.7C43.54 68.988 44.524 69.3 45.772 69.636C47.428 70.092 48.772 70.548 49.804 71.004C50.86 71.46 51.748 72.168 52.468 73.128C53.212 74.064 53.584 75.324 53.584 76.908C53.584 78.18 53.236 79.38 52.54 80.508C51.868 81.636 50.872 82.548 49.552 83.244C48.256 83.916 46.72 84.252 44.944 84.252Z" fill="#29A867"/>
</svg>
