<svg width="41" height="52" viewBox="0 0 41 52" fill="none" xmlns="http://www.w3.org/2000/svg">
<path d="M38.1072 12.5315C38.0626 12.0033 37.6177 11.5986 37.0875 11.6038H29.3381V8.6671C29.3381 3.88028 25.4574 0 20.671 0C15.8842 0 12.0039 3.88028 12.0039 8.6671V11.6038H4.25449C3.72674 11.6058 3.28622 12.0065 3.23484 12.5315L0.56341 43.2439C0.441927 44.6678 0.923079 46.0778 1.89056 47.1306C2.85764 48.1829 4.22183 48.7815 5.65135 48.7803H35.7006C37.1301 48.7815 38.4943 48.1829 39.4614 47.1306C40.4289 46.0778 40.9104 44.6678 40.789 43.2439L38.1072 12.5315ZM14.0432 8.6671C14.0432 5.00669 17.0106 2.03932 20.671 2.03932C24.3314 2.03932 27.2988 5.00669 27.2988 8.6671V11.6038H14.0432V8.6671ZM37.9542 45.752C37.3775 46.3869 36.5582 46.7466 35.7006 46.741H5.64099C4.78344 46.7414 3.96533 46.3817 3.3854 45.75C2.80586 45.1179 2.51789 44.2715 2.59237 43.4172L5.18215 13.6431H12.0039V20.0056C10.3641 20.5103 9.34004 22.1382 9.59536 23.8349C9.85027 25.5313 11.3081 26.786 13.0236 26.786C14.7391 26.786 16.1965 25.5313 16.4518 23.8349C16.7067 22.1382 15.6826 20.5103 14.0432 20.0056V13.6328H27.2988V20.0056C25.659 20.5103 24.6349 22.1382 24.8902 23.8349C25.1452 25.5313 26.6029 26.786 28.3184 26.786C30.0339 26.786 31.4913 25.5313 31.7466 23.8349C32.0016 22.1382 30.9775 20.5103 29.3381 20.0056V13.6328H36.1495L38.7393 43.4068C38.8229 44.2648 38.5373 45.1175 37.9542 45.752ZM12.8706 21.9024C12.9722 21.9159 13.0749 21.9159 13.1765 21.9024C13.9305 21.9836 14.4897 22.6408 14.4491 23.398C14.4081 24.1556 13.7819 24.749 13.0236 24.749C12.2648 24.749 11.6387 24.1556 11.598 23.398C11.5574 22.6408 12.1162 21.9836 12.8706 21.9024ZM28.1655 21.9024C28.2671 21.9159 28.3698 21.9159 28.4714 21.9024C29.2254 21.9836 29.7846 22.6408 29.744 23.398C29.7029 24.1556 29.0768 24.749 28.3184 24.749C27.5597 24.749 26.9335 24.1556 26.8929 23.398C26.8523 22.6408 27.4111 21.9836 28.1655 21.9024Z" fill="black"/>
<path d="M21.432 28.49V30.164H18.102V41H16.05V30.164H12.702V28.49H21.432Z" fill="#29A867"/>
<path d="M24.472 45.126C23.632 45.126 22.876 44.982 22.204 44.694C21.532 44.394 21.004 43.974 20.62 43.434C20.236 42.894 20.044 42.264 20.044 41.544H22.24C22.288 42.084 22.498 42.528 22.87 42.876C23.254 43.224 23.788 43.398 24.472 43.398C25.18 43.398 25.732 43.23 26.128 42.894C26.524 42.546 26.722 42.102 26.722 41.562C26.722 41.142 26.596 40.8 26.344 40.536C26.104 40.272 25.798 40.068 25.426 39.924C25.066 39.78 24.562 39.624 23.914 39.456C23.098 39.24 22.432 39.024 21.916 38.808C21.412 38.58 20.98 38.232 20.62 37.764C20.26 37.296 20.08 36.672 20.08 35.892C20.08 35.172 20.26 34.542 20.62 34.002C20.98 33.462 21.484 33.048 22.132 32.76C22.78 32.472 23.53 32.328 24.382 32.328C25.594 32.328 26.584 32.634 27.352 33.246C28.132 33.846 28.564 34.674 28.648 35.73H26.38C26.344 35.274 26.128 34.884 25.732 34.56C25.336 34.236 24.814 34.074 24.166 34.074C23.578 34.074 23.098 34.224 22.726 34.524C22.354 34.824 22.168 35.256 22.168 35.82C22.168 36.204 22.282 36.522 22.51 36.774C22.75 37.014 23.05 37.206 23.41 37.35C23.77 37.494 24.262 37.65 24.886 37.818C25.714 38.046 26.386 38.274 26.902 38.502C27.43 38.73 27.874 39.084 28.234 39.564C28.606 40.032 28.792 40.662 28.792 41.454C28.792 42.09 28.618 42.69 28.27 43.254C27.934 43.818 27.436 44.274 26.776 44.622C26.128 44.958 25.36 45.126 24.472 45.126Z" fill="#29A867"/>
</svg>
